<svg version="1.1" id="Layer_1" xmlns="http://www.w3.org/2000/svg" xmlns:xlink="http://www.w3.org/1999/xlink" x="0px" y="0px"
	 width="100%" viewBox="0 0 1024 1024" enable-background="new 0 0 1024 1024" xml:space="preserve">
<path fill="#000000" opacity="1.000000" stroke="none" 
	d="
M517.545898,1.000000 
	C518.111816,3.490051 518.322388,5.980148 518.321228,8.470147 
	C518.278259,100.969887 518.215515,193.469620 518.155823,285.969360 
	C518.154236,288.446320 518.155640,290.923279 518.155640,293.293396 
	C521.000061,294.843658 523.709229,294.712219 526.302795,294.573029 
	C530.561951,294.344360 533.593018,296.049652 536.099243,299.390808 
	C544.098328,310.054840 552.221863,320.625397 560.268555,331.253845 
	C561.271057,332.577911 562.224548,333.968506 562.989197,335.438354 
	C566.775513,342.716370 563.601074,348.529572 555.368103,349.054108 
	C543.072815,349.837433 530.768250,350.542206 518.457031,350.990601 
	C502.308594,351.578705 486.148743,351.848206 469.996185,352.334717 
	C465.079163,352.482788 461.073761,351.121552 458.905945,346.375549 
	C456.696045,341.537476 457.267487,337.047485 460.685242,332.859344 
	C469.850311,321.628418 478.989502,310.375641 488.044708,299.056152 
	C491.558136,294.664185 496.225861,293.399384 501.419312,293.943939 
	C506.602020,294.487366 507.838409,292.404144 507.834351,287.435150 
	C507.759857,196.435577 507.858093,105.435844 507.924561,14.436143 
	C507.927612,10.269857 507.976624,6.103605 508.002136,1.468668 
	C511.030609,1.000000 514.061218,1.000000 517.545898,1.000000 
M551.763977,328.731110 
	C545.239868,321.381287 538.582581,314.143311 532.262024,306.622406 
	C529.976196,303.902527 527.559082,302.824707 524.104309,302.945251 
	C516.448242,303.212402 508.781403,303.333374 501.121613,303.254822 
	C498.109222,303.223907 496.141388,304.433136 494.353088,306.656189 
	C486.212616,316.775604 477.987701,326.826996 469.813110,336.919037 
	C468.702850,338.289764 466.741394,339.540710 467.716492,341.592102 
	C468.673126,343.604614 470.902588,342.963989 472.665802,343.046936 
	C493.946716,344.048706 515.270386,343.932587 536.529175,345.590210 
	C542.159912,346.029266 547.844299,345.510620 553.464111,346.558563 
	C556.469727,347.119049 559.044189,346.241669 560.697388,343.365753 
	C562.350647,340.489746 560.436890,338.614929 558.876282,336.725555 
	C556.756409,334.159058 554.466187,331.733215 551.763977,328.731110 
z"/>
<path fill="#000000" opacity="1.000000" stroke="none" 
	d="
M632.494324,615.425903 
	C626.331543,598.521912 615.959229,584.204224 608.487244,568.395020 
	C599.876770,550.176880 590.797485,532.162048 586.388245,512.300537 
	C584.724243,504.805298 584.119141,497.272217 584.471680,489.539551 
	C585.097107,475.821289 579.619934,464.981567 567.768677,457.588623 
	C565.628906,456.253754 563.369446,456.239594 561.040527,456.213501 
	C528.222534,455.845795 495.404449,455.482727 462.586639,455.099365 
	C460.758301,455.078003 458.894836,455.083008 457.111481,454.742218 
	C451.589386,453.686951 446.457733,447.992798 448.002869,442.836792 
	C450.872955,433.259521 447.778412,423.868011 448.536194,414.401978 
	C449.207886,406.011475 452.794006,401.417114 461.273407,400.914246 
	C466.753143,400.589233 472.269379,400.731934 477.765228,400.851318 
	C505.906189,401.462555 534.046265,402.116760 562.185669,402.795074 
	C571.348816,403.015930 574.386963,406.214142 574.305725,415.354309 
	C574.283508,417.853607 574.422485,420.379333 574.113159,422.845978 
	C573.447205,428.155914 573.489868,432.422638 578.170776,436.920868 
	C584.146545,442.663544 580.328918,451.722961 571.349854,455.809509 
	C571.407471,456.109863 571.361572,456.572968 571.539429,456.686981 
	C584.574585,465.041779 589.467529,477.567474 589.895691,492.397156 
	C590.343750,507.917145 595.917480,521.961304 602.505554,535.680054 
	C611.388062,554.176819 621.716064,571.862183 632.614807,589.237610 
	C646.140015,610.800110 653.512085,634.342346 655.435791,659.759033 
	C658.840088,704.738831 644.520325,743.561157 614.066406,776.146729 
	C591.896484,799.868408 564.153198,814.198853 531.686157,818.361450 
	C451.302765,828.667419 386.212158,771.580811 372.786102,699.125000 
	C364.953827,656.856995 374.384674,617.959839 397.656677,582.008240 
	C410.887482,561.568726 422.482635,540.210449 431.004395,517.273926 
	C435.018677,506.469299 435.266632,495.149475 436.717834,483.968689 
	C438.022919,473.913361 442.724457,465.722015 450.904266,459.633026 
	C452.452087,458.480804 453.919006,457.011780 456.452240,457.316650 
	C456.188293,459.304321 454.560913,459.957703 453.383026,460.933197 
	C445.599396,467.379303 441.130371,475.813934 441.403473,485.741272 
	C442.010345,507.799500 435.996338,528.094177 427.256653,547.994385 
	C419.066956,566.642395 408.929230,584.252014 399.597626,602.294128 
	C388.083282,624.556519 383.161530,648.487061 384.495667,673.294678 
	C387.807831,734.883484 429.491760,787.951721 489.708313,800.045044 
	C524.588867,807.050110 556.637817,799.427002 585.270569,778.689331 
	C619.266052,754.067810 637.137817,719.808655 641.400208,678.570496 
	C643.613770,657.155090 640.241455,636.061890 632.494324,615.425903 
M470.538727,430.717499 
	C490.007446,431.357605 509.476135,431.998779 528.944885,432.637360 
	C540.426392,433.013947 551.906006,433.495758 563.390564,433.713287 
	C568.912415,433.817871 570.792419,431.435089 570.379333,425.941162 
	C570.129883,422.623383 570.066956,419.291718 569.912598,415.966644 
	C569.608948,409.426453 568.591309,408.347748 562.211670,408.426147 
	C557.886230,408.479279 553.565979,408.909485 549.240112,408.987976 
	C521.765625,409.486389 494.290222,409.932129 466.815186,410.399139 
	C458.341888,410.543182 458.099640,410.773376 458.096008,419.104706 
	C458.090149,432.572418 457.358124,430.482605 470.538727,430.717499 
M562.422791,436.380310 
	C559.777222,436.645386 557.136963,437.057007 554.485291,437.153168 
	C522.753967,438.304077 491.035278,439.890503 459.275299,440.059601 
	C457.100403,440.071167 455.581024,440.519073 455.452026,442.842224 
	C455.333679,444.973419 456.634674,446.305603 458.657196,446.647034 
	C460.281738,446.921326 461.968384,446.894775 463.627106,446.889252 
	C481.260193,446.830383 498.893158,446.717682 516.526245,446.682922 
	C533.327698,446.649811 550.129211,446.689301 566.930725,446.702820 
	C569.357849,446.704773 571.853943,446.554138 572.475098,443.647736 
	C573.141907,440.527496 571.313477,438.546997 568.580688,437.526306 
	C566.899414,436.898346 565.043884,436.737152 562.422791,436.380310 
z"/>
<path fill="#000000" opacity="1.000000" stroke="none" 
	d="
M527.554138,637.563232 
	C525.733826,638.484802 524.281128,639.306396 522.768311,639.996521 
	C514.449097,643.791931 509.411804,649.335632 511.209717,659.364014 
	C511.980286,663.662292 510.662567,668.013855 508.637146,671.914612 
	C505.762848,677.450195 500.202423,677.604919 496.845459,672.314270 
	C494.690552,668.918091 494.257874,665.140076 494.967529,661.244202 
	C495.568237,657.946167 496.263611,654.387573 498.506989,652.004761 
	C504.736969,645.387695 501.603668,639.384583 497.555878,633.730713 
	C490.653625,624.090027 481.163391,618.321106 469.348877,616.498352 
	C466.250763,616.020325 464.301025,616.979370 463.183136,620.048157 
	C461.531281,624.582764 459.656433,629.039490 457.773895,633.485840 
	C456.217468,637.162048 453.643768,639.820496 449.358551,639.063538 
	C444.982422,638.290527 443.119843,634.966736 442.710419,630.781006 
	C441.815887,621.634949 446.714935,614.124512 456.228577,611.147888 
	C459.782318,610.036011 461.363495,608.022583 462.465698,604.845642 
	C472.762512,575.165466 479.505798,544.761169 481.929779,513.383057 
	C482.534424,505.556152 482.514771,497.752655 482.810242,489.939270 
	C482.881683,488.050446 482.229919,485.931488 483.997894,484.326172 
	C486.587494,489.435028 485.280243,527.291443 482.063690,547.409546 
	C478.731781,568.249146 473.927307,588.740662 467.317322,609.132935 
	C487.312134,611.519104 501.028625,621.490601 508.789276,639.158142 
	C510.958832,639.276367 512.167358,637.994446 513.521729,637.110718 
	C523.722900,630.453979 534.809021,626.200684 546.909790,624.613037 
	C552.945190,623.821228 553.179077,623.559265 551.711243,617.789001 
	C545.384338,592.917419 541.023682,567.695740 539.034180,542.126770 
	C537.665649,524.539368 536.794861,506.888184 538.614319,489.248138 
	C538.695374,488.461945 538.890137,487.687500 539.046387,486.828186 
	C540.741516,487.198425 540.293884,488.423462 540.291931,489.220917 
	C540.245422,507.715057 541.246155,526.149414 543.319519,544.526489 
	C546.214661,570.187683 551.467346,595.376221 558.358948,620.247192 
	C559.183655,623.223511 561.208801,624.148804 563.799133,624.504272 
	C568.361145,625.130066 572.527954,626.696655 576.083191,629.638550 
	C583.184021,635.514465 582.058044,647.394165 574.039673,651.707886 
	C568.920837,654.461792 564.683838,653.342834 561.733459,648.307068 
	C559.362061,644.259399 557.763184,639.847534 556.562988,635.346313 
	C555.654114,631.937622 553.799316,630.948181 550.410400,631.239624 
	C542.502441,631.919739 535.099182,634.253784 527.554138,637.563232 
M570.170349,645.619080 
	C573.671997,643.976868 574.666626,640.927856 573.328552,637.750488 
	C571.494141,633.394287 567.480896,631.969055 561.893677,631.527649 
	C564.469421,636.881714 563.394897,643.009827 570.170349,645.619080 
M449.255219,629.752502 
	C449.514771,631.501404 450.288361,633.334717 451.745209,630.840027 
	C453.914795,627.124878 455.807281,623.157776 456.890808,618.171814 
	C451.953827,620.808167 449.184906,623.956726 449.255219,629.752502 
z"/>
<path fill="#000000" opacity="1.000000" stroke="none" 
	d="
M449.779846,389.678894 
	C447.738831,381.577362 448.275330,373.723328 449.169312,366.023071 
	C449.847778,360.178802 455.371063,356.911682 462.882935,356.986969 
	C482.016541,357.178680 501.149506,357.481628 520.280884,357.837402 
	C534.084351,358.094116 547.885742,358.476410 561.686462,358.860931 
	C571.499084,359.134338 574.445312,362.196411 574.295715,371.985931 
	C574.237305,375.807526 574.157288,379.654785 573.677246,383.438354 
	C572.780029,390.510651 570.176331,392.611084 562.738220,392.983765 
	C554.269409,393.408112 545.790283,393.583832 537.319214,393.953064 
	C512.063171,395.053986 486.781189,395.555054 461.510529,396.329529 
	C456.388794,396.486481 452.446136,394.643890 449.779846,389.678894 
M554.545532,389.684753 
	C557.361755,389.897491 560.182983,390.059082 562.993042,390.334839 
	C567.322632,390.759766 570.580078,388.037506 570.486511,383.754333 
	C570.388428,379.265472 570.055847,374.781677 569.822388,370.295837 
	C569.606567,366.149109 567.301514,364.435272 563.283813,364.527649 
	C535.819824,365.159149 508.354950,365.754425 480.890869,366.383423 
	C477.564453,366.459625 474.235046,366.585876 470.917297,366.828979 
	C457.669342,367.799561 457.763367,367.817780 458.089661,381.340454 
	C458.178925,385.039154 459.257202,386.786316 463.265228,386.783508 
	C493.408813,386.762512 523.521912,387.819916 554.545532,389.684753 
z"/>
<path fill="#000000" opacity="1.000000" stroke="none" 
	d="
M518.545654,771.499023 
	C534.407593,767.638550 549.202759,762.208008 562.732422,753.705750 
	C587.786926,737.960815 601.577271,714.693909 607.696655,686.280579 
	C610.054199,675.334167 611.214355,664.297974 611.090637,653.107117 
	C611.072937,651.506531 610.541321,649.776855 611.658325,648.268860 
	C622.733154,660.675964 613.075073,713.007751 594.876282,737.351135 
	C581.394958,755.384399 562.976807,766.284790 541.484802,772.114624 
	C527.605530,775.879456 513.477844,777.724976 499.149109,776.799622 
	C499.071381,776.238770 498.993652,775.677979 498.915924,775.117126 
	C505.323761,773.941895 511.731628,772.766602 518.545654,771.499023 
z"/>
</svg>