<?xml version="1.0" encoding="UTF-8"?>
<svg version="1.1" xmlns="http://www.w3.org/2000/svg" width="1498" height="1050">
<path d="M0 0 C494.34 0 988.68 0 1498 0 C1498 346.5 1498 693 1498 1050 C1003.66 1050 509.32 1050 0 1050 C0 703.5 0 357 0 0 Z " fill="#FBF7F2" transform="translate(0,0)"/>
<path d="M0 0 C0 12.87 0 25.74 0 39 C3.96 39 7.92 39 12 39 C15.31701522 39.38243834 18.53331976 39.80708202 21.8125 40.375 C22.60591797 40.50132812 23.39933594 40.62765625 24.21679688 40.7578125 C28.99179906 41.54641732 33.281684 42.65190971 38 44 C38 143.99 38 243.98 38 347 C35.03 346.01 32.06 345.02 29 344 C-19.49192624 328.65413058 -63.22085264 327.57441097 -109.015625 351.27734375 C-116.04084078 355.0314946 -122.67557198 359.35545953 -129.26269531 363.82373047 C-131.51196467 365.34663375 -133.78878239 366.82643542 -136.0625 368.3125 C-138.81676825 370.15044439 -141.44558182 372.09688841 -144.0625 374.125 C-155.3243867 382.67236819 -167.26306356 383.10851405 -181 382 C-184.72153841 381.15598483 -187.73110841 379.94512558 -191 378 C-192.03125 377.4225 -193.0625 376.845 -194.125 376.25 C-196.50097441 374.39054177 -198.28595748 372.63403947 -200.3125 370.4375 C-204.19064687 366.49287062 -208.42331736 363.38318245 -213 360.3125 C-213.64493408 359.86124756 -214.28986816 359.40999512 -214.9543457 358.94506836 C-222.02675937 354.34069832 -229.96571238 352.27909184 -238 350 C-239.38982866 349.59893747 -240.77964001 349.19781492 -242.16943359 348.79663086 C-245.63737006 347.8035388 -249.11247742 346.83893562 -252.59204102 345.88745117 C-254.6995167 345.30920286 -256.80378277 344.72011656 -258.90820312 344.13085938 C-271.77674586 340.57108587 -284.0580009 338.63966351 -297.4375 338.75 C-298.61965088 338.75604248 -299.80180176 338.76208496 -301.01977539 338.76831055 C-309.18493357 338.86115398 -316.99542064 339.28395721 -325 341 C-325.89847656 341.18304687 -326.79695312 341.36609375 -327.72265625 341.5546875 C-339.97890042 344.34724946 -352.33271775 348.3330871 -364 353 C-364 237.17 -364 121.34 -364 2 C-212.17598344 2 -212.17598344 2 -187 21 C-186.030625 21.71542969 -185.06125 22.43085938 -184.0625 23.16796875 C-167.22406008 36.33373873 -156.68436463 54.21621377 -152 75 C-151.66355469 76.49080078 -151.66355469 76.49080078 -151.3203125 78.01171875 C-146.96489363 100.35561416 -152.10730611 124.42355947 -164.30859375 143.6015625 C-169.69735979 151.24290741 -175.79921155 158.97344084 -183 165 C-183.66 165 -184.32 165 -185 165 C-185 165.66 -185 166.32 -185 167 C-184.11828125 167.25652344 -183.2365625 167.51304687 -182.328125 167.77734375 C-162.46926976 175.07290911 -148.60518076 195.85031811 -139.53125 213.92578125 C-129.09181644 236.93709365 -129.01182366 263.45258279 -137.80078125 286.94921875 C-143.49739322 301.42569687 -151.06366144 312.96297277 -162 324 C-162.804375 324.81726563 -163.60875 325.63453125 -164.4375 326.4765625 C-170.93234102 332.69366361 -178.11292517 336.83502142 -186 341 C-186.80050781 341.44601562 -187.60101562 341.89203125 -188.42578125 342.3515625 C-192.69179861 344.65438352 -196.24034591 345.60336216 -201 346 C-199.87499925 347.12500075 -198.74928598 348.24929355 -197.62109375 349.37109375 C-196.43638053 350.56151643 -195.26348705 351.76373519 -194.09765625 352.97265625 C-190.28799356 356.88468992 -186.70584646 360.21927255 -182 363 C-181.45214844 363.35191406 -180.90429688 363.70382812 -180.33984375 364.06640625 C-174.62808365 366.345389 -167.03230927 366.02440963 -161 365 C-157.25419818 363.24999285 -154.70362284 361.09927496 -152 358 C-151.3090625 357.22785156 -150.618125 356.45570313 -149.90625 355.66015625 C-147.77863679 352.69108946 -146.87333055 350.11232801 -145.8125 346.625 C-140.90657697 332.39782321 -132.60791985 321.49903061 -122 311 C-120.72382812 309.69095703 -120.72382812 309.69095703 -119.421875 308.35546875 C-92.19024104 281.83386206 -53.42962153 275 -17 275 C-17 190.52 -17 106.04 -17 19 C-42.66855493 21.85206166 -69.4447908 25.28199572 -92 39 C-93.10085938 39.4640625 -94.20171875 39.928125 -95.3359375 40.40625 C-99.3366955 42.14645177 -102.93392781 44.19023534 -106.625 46.5 C-107.31577637 46.93143311 -108.00655273 47.36286621 -108.71826172 47.80737305 C-115.69208877 52.27155156 -121.81917722 57.5180986 -128 63 C-129.98885335 64.68063254 -131.99279489 66.34122664 -134 68 C-134.86928276 65.60872043 -135.72051601 63.21338274 -136.5625 60.8125 C-136.80935547 60.13896484 -137.05621094 59.46542969 -137.31054688 58.77148438 C-138.67827741 54.82240324 -139.66689224 51.9267501 -138 48 C-136.24505017 46.09126591 -134.62076975 44.55357799 -132.625 42.9375 C-131.76865967 42.23294678 -131.76865967 42.23294678 -130.89501953 41.51416016 C-94.1344401 12.09598444 -46.4097156 0 0 0 Z " fill="#FAF6F2" transform="translate(919,220)"/>
<path d="M0 0 C0 12.87 0 25.74 0 39 C3.96 39 7.92 39 12 39 C15.31701522 39.38243834 18.53331976 39.80708202 21.8125 40.375 C22.60591797 40.50132812 23.39933594 40.62765625 24.21679688 40.7578125 C28.99179906 41.54641732 33.281684 42.65190971 38 44 C38 143.99 38 243.98 38 347 C35.03 346.01 32.06 345.02 29 344 C-19.49192624 328.65413058 -63.22085264 327.57441097 -109.015625 351.27734375 C-116.04084078 355.0314946 -122.67557198 359.35545953 -129.26269531 363.82373047 C-131.51196467 365.34663375 -133.78878239 366.82643542 -136.0625 368.3125 C-138.81676825 370.15044439 -141.44558182 372.09688841 -144.0625 374.125 C-155.3243867 382.67236819 -167.26306356 383.10851405 -181 382 C-184.72153841 381.15598483 -187.73110841 379.94512558 -191 378 C-192.03125 377.4225 -193.0625 376.845 -194.125 376.25 C-196.50097441 374.39054177 -198.28595748 372.63403947 -200.3125 370.4375 C-204.19064687 366.49287062 -208.42331736 363.38318245 -213 360.3125 C-213.64493408 359.86124756 -214.28986816 359.40999512 -214.9543457 358.94506836 C-222.02675937 354.34069832 -229.96571238 352.27909184 -238 350 C-239.38982866 349.59893747 -240.77964001 349.19781492 -242.16943359 348.79663086 C-245.63737006 347.8035388 -249.11247742 346.83893562 -252.59204102 345.88745117 C-254.6995167 345.30920286 -256.80378277 344.72011656 -258.90820312 344.13085938 C-271.77674586 340.57108587 -284.0580009 338.63966351 -297.4375 338.75 C-298.61965088 338.75604248 -299.80180176 338.76208496 -301.01977539 338.76831055 C-309.18493357 338.86115398 -316.99542064 339.28395721 -325 341 C-325.89847656 341.18304687 -326.79695312 341.36609375 -327.72265625 341.5546875 C-339.97890042 344.34724946 -352.33271775 348.3330871 -364 353 C-364 237.17 -364 121.34 -364 2 C-212.17598344 2 -212.17598344 2 -187 21 C-186.030625 21.71542969 -185.06125 22.43085938 -184.0625 23.16796875 C-167.22406008 36.33373873 -156.68436463 54.21621377 -152 75 C-151.66355469 76.49080078 -151.66355469 76.49080078 -151.3203125 78.01171875 C-146.96489363 100.35561416 -152.10730611 124.42355947 -164.30859375 143.6015625 C-169.69735979 151.24290741 -175.79921155 158.97344084 -183 165 C-183.66 165 -184.32 165 -185 165 C-185 165.66 -185 166.32 -185 167 C-184.11828125 167.25652344 -183.2365625 167.51304687 -182.328125 167.77734375 C-162.46926976 175.07290911 -148.60518076 195.85031811 -139.53125 213.92578125 C-129.09181644 236.93709365 -129.01182366 263.45258279 -137.80078125 286.94921875 C-143.49739322 301.42569687 -151.06366144 312.96297277 -162 324 C-162.804375 324.81726563 -163.60875 325.63453125 -164.4375 326.4765625 C-170.93234102 332.69366361 -178.11292517 336.83502142 -186 341 C-186.80050781 341.44601562 -187.60101562 341.89203125 -188.42578125 342.3515625 C-192.69179861 344.65438352 -196.24034591 345.60336216 -201 346 C-199.87499925 347.12500075 -198.74928598 348.24929355 -197.62109375 349.37109375 C-196.43638053 350.56151643 -195.26348705 351.76373519 -194.09765625 352.97265625 C-190.28799356 356.88468992 -186.70584646 360.21927255 -182 363 C-181.45214844 363.35191406 -180.90429688 363.70382812 -180.33984375 364.06640625 C-174.62808365 366.345389 -167.03230927 366.02440963 -161 365 C-157.25419818 363.24999285 -154.70362284 361.09927496 -152 358 C-151.3090625 357.22785156 -150.618125 356.45570313 -149.90625 355.66015625 C-147.77863679 352.69108946 -146.87333055 350.11232801 -145.8125 346.625 C-140.90657697 332.39782321 -132.60791985 321.49903061 -122 311 C-120.72382812 309.69095703 -120.72382812 309.69095703 -119.421875 308.35546875 C-92.19024104 281.83386206 -53.42962153 275 -17 275 C-17 190.52 -17 106.04 -17 19 C-42.66855493 21.85206166 -69.4447908 25.28199572 -92 39 C-93.10085938 39.4640625 -94.20171875 39.928125 -95.3359375 40.40625 C-99.3366955 42.14645177 -102.93392781 44.19023534 -106.625 46.5 C-107.31577637 46.93143311 -108.00655273 47.36286621 -108.71826172 47.80737305 C-115.69208877 52.27155156 -121.81917722 57.5180986 -128 63 C-129.98885335 64.68063254 -131.99279489 66.34122664 -134 68 C-134.86928276 65.60872043 -135.72051601 63.21338274 -136.5625 60.8125 C-136.80935547 60.13896484 -137.05621094 59.46542969 -137.31054688 58.77148438 C-138.67827741 54.82240324 -139.66689224 51.9267501 -138 48 C-136.24505017 46.09126591 -134.62076975 44.55357799 -132.625 42.9375 C-131.76865967 42.23294678 -131.76865967 42.23294678 -130.89501953 41.51416016 C-94.1344401 12.09598444 -46.4097156 0 0 0 Z M-347 20 C-347 121.97 -347 223.94 -347 329 C-339.42005514 326.93667776 -339.42005514 326.93667776 -331.8515625 324.83203125 C-308.96469085 319.02438527 -282.10005726 319.62650902 -259.52685547 326.27685547 C-254.91271133 327.59734773 -250.23348514 328.65183024 -245.5625 329.75 C-244.70333984 329.96035889 -243.84417969 330.17071777 -242.95898438 330.38745117 C-221.69714657 335.55702092 -203.63339666 332.12289286 -185 321 C-181.42433195 318.55946467 -178.19152636 315.92027547 -175 313 C-173.97712891 312.11441406 -173.97712891 312.11441406 -172.93359375 311.2109375 C-158.36414972 297.81047038 -149.65973588 277.29424234 -148.68359375 257.75390625 C-147.92541833 233.05109475 -156.50496025 212.4219504 -173.25 194.3125 C-184.40241298 183.86657472 -206.25756632 169 -222 169 C-222 168.34 -222 167.68 -222 167 C-221.33355469 166.92910156 -220.66710937 166.85820312 -219.98046875 166.78515625 C-215.92502514 165.71681527 -212.82158019 163.68856893 -209.3125 161.4375 C-208.25011108 160.76303833 -208.25011108 160.76303833 -207.16625977 160.07495117 C-187.40631281 147.35267018 -173.71907158 131.32961125 -168.1340332 108.08129883 C-163.76620301 87.71024436 -169.75667157 68.50689045 -180.6875 51.3515625 C-189.94579204 38.66592196 -202.03839772 30.68152836 -216.5 25.25 C-217.28310547 24.95585205 -218.06621094 24.6617041 -218.87304688 24.35864258 C-259.08847497 9.9056999 -304.26631061 20 -347 20 Z " fill="#070706" transform="translate(919,220)"/>
<path d="M0 0 C17 0 17 0 21 1 C21 88.78 21 176.56 21 267 C3 263 3 263 -4.3125 261.3125 C-41.69259392 253.48777044 -85.78023311 260.09975791 -118.3984375 280.25 C-118.92695312 280.4975 -119.45546875 280.745 -120 281 C-120.66 280.67 -121.32 280.34 -122 280 C-101.94406722 254.25473119 -74.11699675 241.35247628 -42.21484375 236.4140625 C-36.9467645 235.79924939 -31.67262227 235.81586571 -26.375 235.8125 C-25.38371094 235.80025391 -24.39242187 235.78800781 -23.37109375 235.77539062 C-15.2450872 235.75970335 -8.24779367 236.82174376 0 238 C0 159.46 0 80.92 0 0 Z " fill="#F6F3EF" transform="translate(919,276)"/>
<path d="M0 0 C1.16499023 -0.00483398 1.16499023 -0.00483398 2.35351562 -0.00976562 C12.93657288 0.08880646 22.41008475 4.95616237 29.9375 12.3125 C37.56973913 22.53122017 37.95949497 32.98006201 36.9375 45.3125 C35.38540835 53.61462783 30.16388196 59.81805949 23.9375 65.3125 C14.26818471 71.78396964 3.38228819 73.38719353 -8.0625 72.3125 C-17.80271996 70.21525611 -25.68248138 63.34491114 -31.0625 55.125 C-36.51508036 45.92377064 -36.67598217 33.63596995 -34.41015625 23.3515625 C-30.47744019 13.73075497 -21.92248836 6.34675164 -12.87890625 1.6640625 C-8.60645791 -0.09970349 -4.56704259 -0.09522608 0 0 Z " fill="#0B0B0A" transform="translate(529.0625,648.6875)"/>
<path d="M0 0 C0.75200684 -0.01023193 1.50401367 -0.02046387 2.27880859 -0.03100586 C12.13871267 0.12342637 20.44851169 4.42010394 27.63671875 11.06640625 C34.804595 18.84815604 37.2204982 27.86367966 37.08203125 38.2109375 C36.46807265 47.77942443 33.40524305 54.47099854 26.875 61.4375 C26.35035156 62.00339844 25.82570313 62.56929687 25.28515625 63.15234375 C17.47506858 70.65690231 7.7392356 73.21417888 -2.82324219 73.1015625 C-9.8538665 72.73436195 -15.29668244 70.3682258 -21.125 66.4375 C-22.17107422 65.73560547 -22.17107422 65.73560547 -23.23828125 65.01953125 C-30.63583272 59.36444373 -34.39097659 50.38989995 -36.125 41.4375 C-37.21258216 31.03842678 -34.95670811 22.03469727 -28.84765625 13.5390625 C-20.89364194 3.83552577 -12.3819314 0.13016319 0 0 Z " fill="#0A0909" transform="translate(618.125,648.5625)"/>
<path d="M0 0 C6.06375 -0.0825 12.1275 -0.165 18.375 -0.25 C20.26782715 -0.28641602 22.1606543 -0.32283203 24.11083984 -0.36035156 C43.00251551 -0.57464937 43.00251551 -0.57464937 49.94482422 5.78027344 C53.68476395 9.75614658 54.79270041 12.84408421 55.3125 18.25 C54.9296784 22.84385918 53.73187209 26.27313296 51 30 C48.25 31.5 48.25 31.5 46 32 C46 32.66 46 33.32 46 34 C46.721875 34.061875 47.44375 34.12375 48.1875 34.1875 C52.41651149 35.40921443 54.85456556 38.12021037 57.12109375 41.83984375 C59.08534123 46.66752756 58.70584645 52.34637473 57.3828125 57.3203125 C54.61974035 63.75117954 49.70656133 66.47485278 43.44628906 69.05078125 C39.09438439 70.24943564 35.15353501 70.25045932 30.6640625 70.1953125 C29.88377686 70.19329834 29.10349121 70.19128418 28.29956055 70.18920898 C25.40797985 70.17881065 22.5164835 70.15088841 19.625 70.125 C9.910625 70.063125 9.910625 70.063125 0 70 C0 46.9 0 23.8 0 0 Z " fill="#0A0A09" transform="translate(419,650)"/>
<path d="M0 0 C5.61 0 11.22 0 17 0 C17.2551643 20.37585038 17.45120556 40.75124623 17.56993389 61.12836742 C17.62653918 70.59093466 17.70364208 80.05248805 17.82983398 89.5144043 C17.93983325 97.76615764 18.01052409 106.01717646 18.03497344 114.26964265 C18.04925577 118.63553857 18.08256241 122.99933416 18.16303062 127.36455345 C18.23833033 131.48319917 18.26060629 135.59890334 18.24418449 139.71817207 C18.24718326 141.22061601 18.26869912 142.72316976 18.31126022 144.22501373 C18.57104692 153.87452525 16.72495252 159.81130417 10.12412804 166.81302184 C8.75180895 168.21103158 7.37601636 169.60562922 6 171 C4.92158091 172.41013757 3.8698523 173.84221275 2.875 175.3125 C2.25625 176.199375 1.6375 177.08625 1 178 C0.67 178 0.34 178 0 178 C0 119.26 0 60.52 0 0 Z " fill="#090808" transform="translate(593,261)"/>
<path d="M0 0 C4.62 0 9.24 0 14 0 C14 9.24 14 18.48 14 28 C24.89 28 35.78 28 47 28 C47 18.76 47 9.52 47 0 C51.29 0 55.58 0 60 0 C60 22.77 60 45.54 60 69 C55.71 69 51.42 69 47 69 C47 59.43 47 49.86 47 40 C36.11 40 25.22 40 14 40 C14 49.9 14 59.8 14 70 C9.38 70 4.76 70 0 70 C0 46.9 0 23.8 0 0 Z " fill="#090908" transform="translate(822,650)"/>
<path d="M0 0 C4.62 0 9.24 0 14 0 C14.33 9.9 14.66 19.8 15 30 C22.9629313 21.45466881 22.9629313 21.45466881 30.75 12.75 C31.56597656 11.84507812 31.56597656 11.84507812 32.3984375 10.921875 C34.08946668 8.97198614 34.08946668 8.97198614 35.6015625 6.515625 C39.90897779 0.40554692 39.90897779 0.40554692 44.01660156 -0.39111328 C49.04027145 -0.77862886 53.99129857 -0.4610282 59 0 C59 2 59 2 56.8359375 4.29296875 C55.90007813 5.18628906 54.96421875 6.07960938 54 7 C42.64718209 17.45851437 42.64718209 17.45851437 34 30 C34.36125977 30.48654053 34.72251953 30.97308105 35.09472656 31.47436523 C41.72128651 40.40850015 48.31693784 49.36264429 54.75 58.4375 C55.25047852 59.1399585 55.75095703 59.84241699 56.26660156 60.56616211 C56.7303418 61.22366455 57.19408203 61.88116699 57.671875 62.55859375 C58.0750293 63.12892334 58.47818359 63.69925293 58.89355469 64.28686523 C60.08414684 66.13028649 61.0530428 68.02194169 62 70 C56.31418159 71.03072301 50.58119992 71.90743603 45 70 C40.18188802 66.16657459 37.26420657 60.51635062 34.28271484 55.22802734 C32.44724632 52.0398877 30.35518967 49.07883634 28.25 46.0625 C25 41.2601626 25 41.2601626 25 39 C23.68412059 40.12104533 22.37239647 41.24696965 21.0625 42.375 C20.33160156 43.00148438 19.60070312 43.62796875 18.84765625 44.2734375 C16.91619094 45.87747714 16.91619094 45.87747714 16 48 C15.34 48 14.68 48 14 48 C14 55.26 14 62.52 14 70 C9.38 70 4.76 70 0 70 C0 46.9 0 23.8 0 0 Z " fill="#0B0A0A" transform="translate(674,650)"/>
<path d="M0 0 C16.5 0 33 0 50 0 C50 3.96 50 7.92 50 12 C38.12 12 26.24 12 14 12 C14 17.28 14 22.56 14 28 C23.57 28 33.14 28 43 28 C43 31.96 43 35.92 43 40 C33.43 40 23.86 40 14 40 C14 45.61 14 51.22 14 57 C26.21 57 38.42 57 51 57 C51 61.29 51 65.58 51 70 C34.17 70 17.34 70 0 70 C0 46.9 0 23.8 0 0 Z " fill="#0C0C0C" transform="translate(906,650)"/>
<path d="M0 0 C1.5554401 1.0111609 3.08126466 2.0704583 4.5625 3.1875 C5.31660156 3.74824219 6.07070313 4.30898438 6.84765625 4.88671875 C7.41355469 5.31597656 7.97945312 5.74523437 8.5625 6.1875 C8.05727778 10.56609255 5.38422778 13.00401224 2.5625 16.1875 C-1.44476246 15.57099808 -4.11614556 13.40173629 -7.4375 11.1875 C-12.95661767 9.39751589 -19.09781912 9.3920085 -24.5625 11.25 C-26.7837308 13.16608894 -26.7837308 13.16608894 -26.9375 16.6875 C-26.40678957 20.40247299 -26.24699429 20.99183824 -23.4375 23.1875 C-21.27095762 24.0725807 -21.27095762 24.0725807 -18.83203125 24.65234375 C-17.93033203 24.89533203 -17.02863281 25.13832031 -16.09960938 25.38867188 C-15.15923828 25.63166016 -14.21886719 25.87464844 -13.25 26.125 C4.80460057 30.81237356 4.80460057 30.81237356 10.5625 39.1875 C11.375 41.125 11.375 41.125 11.5625 43.1875 C11.665625 44.239375 11.76875 45.29125 11.875 46.375 C11.33261216 52.99213167 8.42386515 59.58891134 3.5625 64.1875 C-2.70951949 67.83987749 -8.26631786 68.79600511 -15.4375 68.625 C-16.27539062 68.63208984 -17.11328125 68.63917969 -17.9765625 68.64648438 C-26.31025358 68.56263145 -33.37646424 66.9291378 -39.5 61 C-40.25410156 60.28457031 -41.00820313 59.56914063 -41.78515625 58.83203125 C-42.60306641 58.01798828 -42.60306641 58.01798828 -43.4375 57.1875 C-42.59006083 52.70678716 -40.41715011 50.54915653 -37.4375 47.1875 C-33.98266288 48.70762833 -31.12254536 50.81364635 -28.12109375 53.06640625 C-24.33004392 55.59084082 -20.37810173 55.40391916 -16 55.4375 C-14.68128906 55.46328125 -13.36257813 55.4890625 -12.00390625 55.515625 C-8.34373857 55.17887354 -6.8548733 54.92310979 -4.4375 52.1875 C-3.95692285 50.1386352 -3.95692285 50.1386352 -4.1875 48 C-4.27 46.741875 -4.3525 45.48375 -4.4375 44.1875 C-9.39334292 41.094126 -13.68718963 39.38733638 -19.375 38.1875 C-34.72316758 34.62163959 -34.72316758 34.62163959 -39.4375 27.1875 C-41.90144919 21.84745012 -42.23385667 16.9895272 -41.4375 11.1875 C-39.37768322 6.06349297 -36.10992808 2.15050317 -31.4375 -0.8125 C-22.06240357 -4.69282692 -8.95950895 -4.87930014 0 0 Z " fill="#0A0909" transform="translate(791.4375,651.8125)"/>
<path d="M0 0 C16.5 0 33 0 50 0 C50 3.96 50 7.92 50 12 C38.12 12 26.24 12 14 12 C14 17.28 14 22.56 14 28 C23.24 28 32.48 28 42 28 C42 32.29 42 36.58 42 41 C32.76 41 23.52 41 14 41 C14 50.57 14 60.14 14 70 C9.38 70 4.76 70 0 70 C0 46.9 0 23.8 0 0 Z " fill="#0F0E0E" transform="translate(1043,650)"/>
<path d="M0 0 C5.67331961 3.20812716 9.5480477 7.67600546 12.75 13.3125 C13.14081108 16.11139702 13.32588444 18.41032655 13.25 21.1875 C13.23078491 22.24976807 13.23078491 22.24976807 13.21118164 23.33349609 C12.91197248 31.04190539 10.9478369 35.49771841 5.375 40.6875 C-0.91970015 45.57452459 -7.47698406 46.16388297 -15.25 45.3125 C-21.58916227 43.69237105 -24.6473599 40.05137726 -28.0234375 34.62890625 C-31.77912443 27.53615991 -32.35527545 21.42088116 -30.125 13.6875 C-27.71497407 7.29423678 -24.0788562 2.94031915 -17.9375 -0.125 C-11.69406665 -2.5448542 -6.14047545 -2.822545 0 0 Z " fill="#F7F3F0" transform="translate(627.25,662.6875)"/>
<path d="M0 0 C6.56673206 2.29440036 11.24961377 7.49922754 14.3125 13.625 C16.04945352 22.15186274 15.77943378 29.29119772 11.421875 36.94140625 C9.57683036 39.61266593 7.77335202 41.30893169 5 43 C4.154375 43.5775 3.30875 44.155 2.4375 44.75 C-3.97151809 47.08055203 -11.15033686 47.2262941 -17.4375 44.375 C-23.14819085 41.0101946 -26.40513143 36.03525611 -29 30 C-29.88580008 23.12108404 -30.06849034 15.84947668 -26.4140625 9.75 C-18.79824382 0.32489843 -11.69901937 -1.06354722 0 0 Z " fill="#F6F3EF" transform="translate(537,662)"/>
<path d="M0 0 C4.95 0 9.9 0 15 0 C15 18.81 15 37.62 15 57 C26.22 57 37.44 57 49 57 C49 61.29 49 65.58 49 70 C32.83 70 16.66 70 0 70 C0 46.9 0 23.8 0 0 Z " fill="#151514" transform="translate(977,650)"/>
<path d="M0 0 C0.99 0 1.98 0 3 0 C3 99.99 3 199.98 3 303 C1.02 302.34 -0.96 301.68 -3 301 C-2.34 300.01 -1.68 299.02 -1 298 C-0.69551419 295.64573633 -0.69551419 295.64573633 -0.73828697 292.97688007 C-0.73082148 291.93285505 -0.72335599 290.88883002 -0.71566427 289.81316787 C-0.717599 288.6624038 -0.71953374 287.51163973 -0.7215271 286.32600403 C-0.7128385 284.49681121 -0.7128385 284.49681121 -0.70397437 282.630665 C-0.68987843 279.23971344 -0.68474157 275.84895892 -0.68332577 272.4579922 C-0.67963848 268.80358993 -0.66448639 265.14923343 -0.65071106 261.49485779 C-0.62841326 255.16138498 -0.61341516 248.82792841 -0.60334396 242.49442482 C-0.58877213 233.33719416 -0.56323955 224.18002001 -0.53501268 215.02282246 C-0.48951744 200.16667849 -0.45291394 185.31052639 -0.421875 170.4543457 C-0.39170063 156.02106296 -0.3573555 141.5878001 -0.31738281 127.15454102 C-0.31492126 126.2652045 -0.31245972 125.37586799 -0.30992357 124.45958189 C-0.29754919 119.99814037 -0.28509261 115.53669908 -0.27259517 111.0752579 C-0.16898648 74.05019936 -0.07979674 37.02511713 0 0 Z " fill="#1F1E1E" transform="translate(954,264)"/>
<path d="M0 0 C4.06360975 -0.13495383 8.12273973 -0.23411619 12.1875 -0.3125 C13.91323242 -0.3753418 13.91323242 -0.3753418 15.67382812 -0.43945312 C24.20179272 -0.56304681 24.20179272 -0.56304681 28.26171875 2.30078125 C30.5683566 5.88254923 30.74708968 7.81629782 30 12 C27.45862841 15.15954305 25.85377341 16.71540886 22 18 C20.29983156 18.08178114 18.59663703 18.10749501 16.89453125 18.09765625 C15.91162109 18.09443359 14.92871094 18.09121094 13.91601562 18.08789062 C12.89185547 18.07951172 11.86769531 18.07113281 10.8125 18.0625 C9.77673828 18.05798828 8.74097656 18.05347656 7.67382812 18.04882812 C5.1158608 18.03704026 2.55792314 18.01910482 0 18 C0 12.06 0 6.12 0 0 Z " fill="#F2EFEB" transform="translate(433,690)"/>
<path d="M0 0 C3.39631472 -0.08107913 6.79068616 -0.14053944 10.1875 -0.1875 C11.14720703 -0.21263672 12.10691406 -0.23777344 13.09570312 -0.26367188 C22.07416443 -0.3568739 22.07416443 -0.3568739 26 3 C27.42662219 5.85324437 27.31033868 7.83454549 27 11 C25.20006226 13.69990662 23.916227 15.5418865 21 17 C19.40552536 17.08400529 17.80759455 17.10727467 16.2109375 17.09765625 C15.26992188 17.09443359 14.32890625 17.09121094 13.359375 17.08789062 C11.88210938 17.07532227 11.88210938 17.07532227 10.375 17.0625 C9.38242187 17.05798828 8.38984375 17.05347656 7.3671875 17.04882812 C4.91143278 17.03702161 2.45570894 17.01908582 0 17 C0 11.39 0 5.78 0 0 Z " fill="#ECE9E5" transform="translate(433,662)"/>
<path d="M0 0 C0.33 0.66 0.66 1.32 1 2 C3.64 2 6.28 2 9 2 C5.94216092 4.40569331 2.77542004 6.36189615 -0.625 8.25 C-2.06746094 9.06210937 -2.06746094 9.06210937 -3.5390625 9.890625 C-4.75722656 10.43976562 -4.75722656 10.43976562 -6 11 C-6.66 10.67 -7.32 10.34 -8 10 C-5.36 6.7 -2.72 3.4 0 0 Z " fill="#E0E0DF" transform="translate(805,546)"/>
<path d="M0 0 C0.66 0.33 1.32 0.66 2 1 C1.38125 1.2475 0.7625 1.495 0.125 1.75 C-2.14291141 2.81460222 -2.14291141 2.81460222 -2.9375 5 C-4.39836667 7.74986668 -6.11305462 8.08833304 -9 9 C-9 9.66 -9 10.32 -9 11 C-9.5775 11.103125 -10.155 11.20625 -10.75 11.3125 C-13.32049158 12.09792798 -14.93657284 13.30504197 -17 15 C-17.66 14.67 -18.32 14.34 -19 14 C-12.87987207 8.96590729 -6.68364774 4.26203624 0 0 Z " fill="#212120" transform="translate(806,249)"/>
<path d="M0 0 C0.33 0.99 0.66 1.98 1 3 C-0.38440658 4.63474589 -1.78303245 6.25745662 -3.1875 7.875 C-3.96480469 8.77992188 -4.74210938 9.68484375 -5.54296875 10.6171875 C-7.99573203 12.99586095 -9.77053123 14.00190486 -13 15 C-8.70214922 9.96836982 -4.36574458 4.97281557 0 0 Z " fill="#E1DFDD" transform="translate(731,652)"/>
<path d="M0 0 C0 0.33 0 0.66 0 1 C-1.13179687 1.20496094 -2.26359375 1.40992188 -3.4296875 1.62109375 C-4.91148761 1.89306972 -6.39325685 2.16521387 -7.875 2.4375 C-8.62136719 2.57220703 -9.36773438 2.70691406 -10.13671875 2.84570312 C-14.18533378 3.54536611 -14.18533378 3.54536611 -18 5 C-19.67654729 4.72057545 -21.34608154 4.39171753 -23 4 C-16.05317202 0.13704426 -7.79971079 -0.29432871 0 0 Z " fill="#A2A29E" transform="translate(889,240)"/>
<path d="M0 0 C1.17755859 -0.00773438 1.17755859 -0.00773438 2.37890625 -0.015625 C4.4375 0.25 4.4375 0.25 6.4375 2.25 C6.1075 2.91 5.7775 3.57 5.4375 4.25 C1.1475 3.59 -3.1425 2.93 -7.5625 2.25 C-4.42838698 0.16059132 -3.58799528 -0.02364412 0 0 Z " fill="#BEBEBB" transform="translate(618.5625,660.75)"/>
<path d="M0 0 C0.66 0.33 1.32 0.66 2 1 C0.1875 3.5 0.1875 3.5 -2 6 C-2.99 6 -3.98 6 -5 6 C-5 6.99 -5 7.98 -5 9 C-5.99 9.33 -6.98 9.66 -8 10 C-8.66 9.34 -9.32 8.68 -10 8 C-9.36191406 7.50628906 -8.72382812 7.01257813 -8.06640625 6.50390625 C-7.24011719 5.86324219 -6.41382813 5.22257813 -5.5625 4.5625 C-4.73878906 3.92441406 -3.91507813 3.28632812 -3.06640625 2.62890625 C-1.12498733 1.16417803 -1.12498733 1.16417803 0 0 Z " fill="#DDDBD9" transform="translate(781,588)"/>
<path d="M0 0 C0.66 0.99 1.32 1.98 2 3 C-0.64 5.31 -3.28 7.62 -6 10 C-6.66 9.67 -7.32 9.34 -8 9 C-5.36 6.03 -2.72 3.06 0 0 Z " fill="#E4E2E0" transform="translate(717,667)"/>
<path d="M0 0 C-2.6860286 1.79068573 -4.6626589 2.66055791 -7.6875 3.625 C-8.49574219 3.88539063 -9.30398438 4.14578125 -10.13671875 4.4140625 C-10.75160156 4.60742188 -11.36648438 4.80078125 -12 5 C-12 4.01 -12 3.02 -12 2 C-7.8794254 0.00214565 -4.54805635 -0.17835515 0 0 Z " fill="#F1F1EE" transform="translate(846,231)"/>
<path d="M0 0 C0.66 0.33 1.32 0.66 2 1 C0.25 7.75 0.25 7.75 -2 10 C-1.85950482 8.52031676 -1.71245174 7.04125484 -1.5625 5.5625 C-1.48128906 4.73878906 -1.40007813 3.91507813 -1.31640625 3.06640625 C-1 1 -1 1 0 0 Z " fill="#E5E4E2" transform="translate(771,566)"/>
<path d="M0 0 C3.37503669 1.1858237 5.64722731 2.27573689 8 5 C7.01 5.495 7.01 5.495 6 6 C3.4375 4.75 3.4375 4.75 1 3 C0.67 2.01 0.34 1.02 0 0 Z " fill="#ECEAE7" transform="translate(698,576)"/>
<path d="M0 0 C-1 3 -1 3 -3.3125 4.25 C-6.16597407 5.04631835 -7.24802325 4.8214856 -10 4 C-8.71086513 3.32845067 -7.41859796 2.66291141 -6.125 2 C-5.40570312 1.62875 -4.68640625 1.2575 -3.9453125 0.875 C-2 0 -2 0 0 0 Z " fill="#D4D3D1" transform="translate(735,560)"/>
<path d="M0 0 C-0.66 1.32 -1.32 2.64 -2 4 C-4.64 4 -7.28 4 -10 4 C-6.86268382 1.90845588 -3.85464592 0 0 0 Z " fill="#C7C4C0" transform="translate(638,716)"/>
<path d="M0 0 C0.66 0.33 1.32 0.66 2 1 C2 1.99 2 2.98 2 4 C1.34 4.66 0.68 5.32 0 6 C-1.5 4.625 -1.5 4.625 -3 3 C-3 2.34 -3 1.68 -3 1 C-2.01 0.67 -1.02 0.34 0 0 Z " fill="#CBCAC9" transform="translate(721,565)"/>
<path d="M0 0 C0.33 0.99 0.66 1.98 1 3 C-0.96466413 4.06775224 -2.96855359 5.06553465 -5 6 C-5.66 5.67 -6.32 5.34 -7 5 C-2.25 0 -2.25 0 0 0 Z " fill="#C5C3C3" transform="translate(699,689)"/>
<path d="M0 0 C2.56616632 3.84924948 2.55097676 6.4349304 3 11 C2.67 10.34 2.34 9.68 2 9 C1.34 9 0.68 9 0 9 C0 6.03 0 3.06 0 0 Z " fill="#C9C7C3" transform="translate(766,449)"/>
<path d="M0 0 C0.33 0 0.66 0 1 0 C1.33 4.29 1.66 8.58 2 13 C1.01 13.33 0.02 13.66 -1 14 C-0.67 9.38 -0.34 4.76 0 0 Z " fill="#626362" transform="translate(640,680)"/>
</svg>
