<?xml version="1.0" standalone="no"?>
<!DOCTYPE svg PUBLIC "-//W3C//DTD SVG 20010904//EN"
 "http://www.w3.org/TR/2001/REC-SVG-20010904/DTD/svg10.dtd">
<svg version="1.0" xmlns="http://www.w3.org/2000/svg"
 width="648.000000pt" height="789.000000pt" viewBox="0 0 648.000000 789.000000"
 preserveAspectRatio="xMidYMid meet">
<metadata>
Created by potrace 1.16, written by Peter Selinger 2001-2019
</metadata>
<g transform="translate(0.000000,789.000000) scale(0.100000,-0.100000)"
fill="#000000" stroke="none">
<path d="M1300 4741 c0 -1113 3 -1592 10 -1596 6 -4 17 -2 23 4 28 23 267 92
390 113 117 19 139 20 241 10 141 -15 169 -20 351 -70 83 -23 199 -53 258 -67
122 -29 246 -86 310 -143 132 -117 193 -145 317 -146 68 -1 96 4 140 23 73 31
148 80 155 100 6 21 68 72 171 144 159 108 319 177 564 238 19 5 125 9 235 9
196 0 203 0 340 -35 77 -19 171 -46 210 -59 38 -14 71 -24 72 -22 4 4 4 2669
0 2673 -6 6 -100 24 -195 37 -51 7 -95 16 -99 19 -3 4 -7 81 -8 173 -1 131 -4
168 -16 175 -8 6 -65 8 -144 4 -401 -19 -718 -107 -941 -260 -60 -41 -169
-127 -176 -139 -4 -7 3 -46 15 -88 l22 -76 103 93 c92 84 119 102 255 169 124
62 173 81 265 101 175 39 451 69 469 51 10 -9 13 -2305 4 -2310 -4 -3 -63 -10
-131 -16 -177 -16 -349 -58 -495 -121 -108 -47 -167 -79 -200 -109 -16 -14
-55 -44 -85 -66 -59 -42 -130 -114 -170 -174 -14 -21 -40 -59 -58 -84 -18 -26
-47 -79 -63 -119 -45 -108 -118 -175 -212 -192 -45 -9 -144 24 -194 64 -117
93 -119 95 -75 105 50 12 217 79 237 96 11 9 40 28 65 42 80 46 240 221 281
308 12 25 26 54 31 64 6 11 24 58 40 105 27 75 31 104 35 226 5 126 3 150 -20
246 -14 59 -44 144 -65 190 -71 153 -219 303 -380 386 -133 69 -142 75 -142
81 0 4 21 20 46 36 61 39 146 117 188 174 53 73 122 220 136 292 17 87 14 275
-6 364 -9 39 -19 73 -23 76 -3 3 -23 39 -44 80 -45 90 -138 197 -219 251 -33
21 -62 39 -66 39 -4 0 -38 16 -77 35 -47 24 -109 44 -190 60 l-120 25 -682 0
-682 0 -1 -1589z m1503 1418 c86 -21 169 -63 225 -111 18 -15 37 -28 41 -28
17 0 138 -155 159 -202 11 -26 30 -98 43 -161 l22 -114 -23 -84 c-27 -97 -90
-190 -193 -284 -34 -31 -89 -83 -122 -115 -55 -53 -116 -89 -224 -131 -23 -9
-23 -10 -6 -30 10 -10 46 -32 79 -48 293 -139 406 -205 496 -293 140 -134 207
-288 217 -498 8 -166 -38 -321 -133 -447 -54 -72 -164 -182 -198 -200 -17 -8
-40 -23 -51 -32 -41 -35 -170 -81 -268 -96 -120 -18 -319 -6 -407 25 -30 10
-118 35 -195 55 -187 47 -348 61 -500 41 -106 -14 -230 -38 -287 -56 -16 -4
-30 -5 -32 -2 -6 10 -6 2803 0 2823 4 14 70 15 640 12 605 -3 639 -4 717 -24z
m2140 -356 c4 -2 7 -533 7 -1180 l0 -1175 -52 7 c-29 4 -84 13 -123 21 -145
28 -407 39 -510 20 -16 -4 -59 -11 -95 -17 -102 -18 -260 -68 -317 -101 -71
-40 -166 -88 -175 -88 -35 0 64 102 184 191 132 98 429 208 618 230 63 7 128
8 193 2 67 -6 101 -5 105 2 4 5 7 476 7 1045 1 570 5 1041 9 1048 6 10 25 12
75 6 36 -3 69 -8 74 -11z"/>
<path d="M1610 5235 c0 -432 3 -785 8 -784 4 0 34 31 67 68 l60 67 5 652 c3
359 3 680 0 715 l-5 62 -67 3 -68 3 0 -786z"/>
<path d="M4965 2546 c-43 -19 -56 -39 -69 -104 -11 -54 -13 -57 -44 -60 -29
-3 -33 -6 -30 -30 2 -22 9 -28 38 -32 l35 -5 0 -175 0 -175 35 0 35 0 3 178 2
177 55 0 c54 0 55 0 55 29 0 29 -2 30 -52 33 -53 3 -53 3 -56 39 -4 49 19 71
70 68 26 -2 42 2 48 11 16 26 11 38 -21 49 -41 14 -67 13 -104 -3z"/>
<path d="M2815 2537 c-3 -7 -4 -138 -3 -292 l3 -280 38 -3 37 -3 0 58 c0 55 2
61 39 97 l39 38 71 -96 c69 -93 72 -96 111 -96 22 0 40 4 40 8 0 4 -36 57 -80
117 -44 60 -80 116 -80 123 0 8 34 49 75 91 41 43 72 81 68 84 -3 4 -20 7 -36
7 -24 0 -49 -18 -132 -100 -55 -55 -104 -100 -108 -100 -4 0 -7 81 -7 180 l0
180 -35 0 c-20 0 -38 -6 -40 -13z"/>
<path d="M3722 2258 l3 -293 35 0 35 0 5 146 c6 163 11 178 76 199 44 15 86 5
115 -26 22 -24 24 -35 29 -172 l5 -147 33 -3 32 -3 0 156 c0 186 -11 219 -83
254 -56 27 -103 27 -160 -2 l-46 -24 -3 101 -3 101 -38 3 -37 3 2 -293z"/>
<path d="M4680 2255 l0 -295 35 0 35 0 0 295 0 295 -35 0 -35 0 0 -295z"/>
<path d="M1325 2508 c-3 -7 -4 -132 -3 -278 l3 -265 170 0 c143 0 175 3 202
18 88 47 97 181 18 244 l-34 27 25 25 c30 30 38 59 31 117 -5 49 -25 77 -72
102 -42 22 -332 31 -340 10z m317 -88 c25 -26 29 -36 24 -63 -12 -61 -34 -72
-156 -75 l-110 -4 0 86 0 86 106 0 c104 0 106 0 136 -30z m19 -239 c29 -29 35
-54 23 -99 -11 -40 -52 -52 -174 -52 l-110 0 0 90 0 90 116 0 c114 0 116 0
145 -29z"/>
<path d="M3335 2506 c-66 -29 -105 -106 -91 -179 11 -57 52 -85 192 -131 45
-15 89 -35 99 -46 25 -27 16 -78 -18 -104 -43 -32 -139 -28 -208 8 -51 26 -54
26 -66 9 -19 -25 -12 -44 25 -69 47 -32 151 -48 219 -34 96 20 155 98 139 184
-11 57 -52 89 -165 126 -112 37 -141 57 -141 98 0 84 113 115 222 61 37 -19
37 -19 48 0 18 35 11 51 -32 71 -51 23 -176 26 -223 6z"/>
<path d="M1967 2375 c-126 -44 -172 -215 -92 -337 80 -121 278 -107 347 25 28
53 30 166 5 213 -49 92 -160 135 -260 99z m134 -70 c87 -45 94 -207 11 -261
-56 -37 -150 -17 -178 38 -71 136 42 287 167 223z"/>
<path d="M2440 2377 c-47 -15 -103 -74 -118 -123 -41 -137 24 -267 147 -293
83 -18 145 2 198 63 42 46 56 96 51 172 -7 111 -81 184 -192 190 -28 2 -67 -2
-86 -9z m130 -72 c51 -27 70 -61 70 -130 0 -111 -70 -173 -161 -144 -71 23
-106 97 -87 181 20 89 102 132 178 93z"/>
<path d="M4305 2371 c-76 -35 -117 -105 -117 -201 0 -105 53 -178 149 -206 47
-14 65 -14 109 -5 53 12 104 43 104 63 0 6 -7 20 -16 29 -16 18 -18 18 -47 -3
-42 -30 -125 -31 -164 -2 -26 19 -67 83 -59 91 2 2 66 4 142 4 77 0 147 3 157
5 34 10 15 121 -30 175 -55 65 -151 86 -228 50z m153 -76 c30 -25 56 -78 45
-89 -8 -7 -243 -8 -243 -1 0 21 32 75 55 93 40 31 104 30 143 -3z"/>
</g>
</svg>
